# xmcd
# Track frame offsets:
# 150
# 20987
# 36575
# 57457
# 74935
# 93040
# 106227
# 118777
# 146445
# 163427
# 179757
# 197075
# 217375
# 234562
#
# Disc length: 3322 seconds
# Revision: 0
# Processed by: cddbd v1.4PL0 Copyright (c) Steve Scherf et al.
# Submitted via: VisiTrax 2.9.5.180 - For more info visit www.synapsa.com
#
DISCID=ea0cf80e
DTITLE=Jim "Curly" Musgrave - Born to be a cowboy
DYEAR=1999
DGENRE=
TTITLE0=My daddy's hat
TTITLE1=Born to be a cowboy
TTITLE2=Bluebell blue
TTITLE3=Harry play your mouth harp
TTITLE4=Coyote choir
TTITLE5=The master's hand
TTITLE6=Thanks (Old cowboy's prayer)
TTITLE7=One last trail
TTITLE8=The ornery camp cooky's stew
TTITLE9=Billy Tucker's stew/Poem
TTITLE10=Wild rose of the west
TTITLE11=Waltzing on saturday night
TTITLE12=Cherokee sun
TTITLE13=Wild in the west
EXTD=
EXTT0=
EXTT1=
EXTT2=
EXTT3=
EXTT4=
EXTT5=
EXTT6=
EXTT7=
EXTT8=
EXTT9=
EXTT10=
EXTT11=
EXTT12=
EXTT13=
PLAYORDER=
